<svg xmlns="http://www.w3.org/2000/svg" viewBox="3.7450103759765625 167.75711444091797 582.0399780273438 239.48577314498226"> <svg xmlns="http://www.w3.org/2000/svg" xmlns:xlink="http://www.w3.org/1999/xlink" viewBox="-3.3537605472703375e-14 0 52.000003814697266 39.5" height="99.48577314498228" width="130.9686279296875" y="237.75711444091797" x="73.74501037597656" preserveAspectRatio="xMinYMin" style="overflow: visible;"><linearGradient id="linear-gradient" x1="-85.26" y1="19.75" x2="-33.26" y2="19.75" gradientTransform="matrix(-1, 0, 0, 1, -33.26, 0)" gradientUnits="userSpaceOnUse" style=""><stop offset="0" stop-color="#008ffa"></stop><stop offset="1" stop-color="#54b2fe"></stop></linearGradient><path id="Layer_1-2" dataName="Layer 1" class="cls-1" d="M45.28,39.5,33.86,30.78h-6.6a4.71,4.71,0,0,1-4.71-4.72V21H18.83L6.72,29.58V21h-2A4.71,4.71,0,0,1,0,16.3V4.72A4.72,4.72,0,0,1,4.72,0H21.85a4.72,4.72,0,0,1,4.72,4.72v2a.31.31,0,0,1-.29.3,4.68,4.68,0,0,0-3.14,1.56A.1.1,0,0,1,23,8.48V4.72A1.12,1.12,0,0,0,21.85,3.6H4.72A1.12,1.12,0,0,0,3.6,4.72V16.3a1.12,1.12,0,0,0,1.12,1.11h5.61v5.2l7.35-5.2h4.87V13.06a4.72,4.72,0,0,1,4.71-4.72l3.54,0a4.47,4.47,0,0,1,4.42,4.45v3.73A4.46,4.46,0,0,1,30.76,21H26.15v5a1.12,1.12,0,0,0,1.11,1.12h7.82l6.59,5v-5h5.61a1.12,1.12,0,0,0,1.12-1.12v-13A1.12,1.12,0,0,0,47.28,12H36.77a.27.27,0,0,1-.25-.24A4.44,4.44,0,0,0,34.88,8.6.13.13,0,0,1,35,8.38H47.28A4.71,4.71,0,0,1,52,13.09v13a4.72,4.72,0,0,1-4.72,4.72h-2ZM26.15,17.41h4.61a.86.86,0,0,0,.86-.85V12.83a.85.85,0,0,0-.85-.85l-3.52,0a1.11,1.11,0,0,0-1.1,1.11Z" style="fill: #F7339A; fill-opacity: 1;"></path></svg> <svg y="260.77011444091795" viewBox="3.2300000190734863 24.68000030517578 291.03997802734375 54.779998779296875" x="224.74501037597656" height="54.779998779296875" width="291.03997802734375" style="overflow: visible;"><g fill="#000000" fill-opacity="1" style=""><path d="M18.41 79.46L18.41 79.46Q12.54 79.46 9.21 77.15Q5.87 74.84 4.55 70.85Q3.23 66.86 3.23 61.64L3.23 61.64L3.23 42.57Q3.23 37.09 4.55 33.07Q5.87 29.04 9.21 26.86Q12.54 24.68 18.41 24.68L18.41 24.68Q23.96 24.68 27.09 26.56Q30.23 28.45 31.55 31.94Q32.87 35.44 32.87 40.06L32.87 40.06L32.87 44.55L23.50 44.55L23.50 39.93Q23.50 37.69 23.27 35.84Q23.03 33.99 22.01 32.90Q20.99 31.81 18.48 31.81L18.48 31.81Q15.97 31.81 14.82 32.97Q13.66 34.12 13.33 36.07Q13.00 38.02 13.00 40.46L13.00 40.46L13.00 63.69Q13.00 66.59 13.46 68.47Q13.93 70.36 15.15 71.31Q16.37 72.27 18.48 72.27L18.48 72.27Q20.92 72.27 21.95 71.11Q22.97 69.96 23.23 68.05Q23.50 66.13 23.50 63.76L23.50 63.76L23.50 58.94L32.87 58.94L32.87 63.23Q32.87 67.98 31.61 71.64Q30.36 75.31 27.23 77.39Q24.09 79.46 18.41 79.46ZM47.50 78.74L37.80 78.74L37.80 25.28L47.50 25.28L47.50 47.65L58.46 47.65L58.46 25.28L68.16 25.28L68.16 78.74L58.46 78.74L58.46 54.58L47.50 54.58L47.50 78.74ZM80.81 78.74L71.64 78.74L82.33 25.28L92.76 25.28L103.45 78.74L94.41 78.74L92.29 66.40L82.99 66.40L80.81 78.74ZM87.61 37.75L83.98 60.19L91.24 60.19L87.61 37.75ZM119.07 78.74L109.30 78.74L109.30 32.47L100.79 32.47L100.79 25.28L127.45 25.28L127.45 32.47L119.07 32.47L119.07 78.74ZM143.80 79.46L143.80 79.46Q138.98 79.46 135.75 77.58Q132.51 75.70 130.86 72.07Q129.21 68.44 129.02 63.16L129.02 63.16L137.40 61.51Q137.53 64.61 138.16 66.99Q138.78 69.37 140.07 70.65Q141.36 71.94 143.47 71.94L143.47 71.94Q145.85 71.94 146.84 70.52Q147.83 69.10 147.83 66.92L147.83 66.92Q147.83 63.43 146.24 61.18Q144.66 58.94 142.02 56.69L142.02 56.69L135.29 50.75Q132.45 48.31 130.77 45.31Q129.08 42.31 129.08 37.88L129.08 37.88Q129.08 31.55 132.78 28.12Q136.47 24.68 142.88 24.68L142.88 24.68Q146.64 24.68 149.15 25.84Q151.65 26.99 153.14 29.04Q154.62 31.09 155.35 33.69Q156.08 36.30 156.27 39.20L156.27 39.20L147.96 40.66Q147.83 38.15 147.40 36.17Q146.97 34.19 145.88 33.07Q144.79 31.94 142.68 31.94L142.68 31.94Q140.50 31.94 139.34 33.36Q138.19 34.78 138.19 36.89L138.19 36.89Q138.19 39.60 139.31 41.35Q140.43 43.10 142.55 44.95L142.55 44.95L149.21 50.82Q152.51 53.59 154.86 57.32Q157.20 61.05 157.20 66.33L157.20 66.33Q157.20 70.16 155.52 73.13Q153.83 76.10 150.83 77.78Q147.83 79.46 143.80 79.46ZM176.05 78.74L166.29 78.74L166.29 32.47L157.77 32.47L157.77 25.28L184.44 25.28L184.44 32.47L176.05 32.47L176.05 78.74ZM201.44 79.46L201.44 79.46Q195.77 79.46 192.40 77.35Q189.04 75.24 187.58 71.28Q186.13 67.32 186.13 61.91L186.13 61.91L186.13 41.91Q186.13 36.50 187.58 32.64Q189.04 28.78 192.40 26.73Q195.77 24.68 201.44 24.68L201.44 24.68Q207.25 24.68 210.59 26.73Q213.92 28.78 215.40 32.64Q216.89 36.50 216.89 41.91L216.89 41.91L216.89 61.97Q216.89 67.32 215.40 71.25Q213.92 75.17 210.59 77.32Q207.25 79.46 201.44 79.46ZM201.44 72.27L201.44 72.27Q203.89 72.27 205.04 71.21Q206.20 70.16 206.59 68.31Q206.99 66.46 206.99 64.28L206.99 64.28L206.99 39.67Q206.99 37.42 206.59 35.64Q206.20 33.86 205.04 32.84Q203.89 31.81 201.44 31.81L201.44 31.81Q199.13 31.81 197.95 32.84Q196.76 33.86 196.36 35.64Q195.97 37.42 195.97 39.67L195.97 39.67L195.97 64.28Q195.97 66.46 196.33 68.31Q196.69 70.16 197.88 71.21Q199.07 72.27 201.44 72.27ZM231.85 78.74L222.08 78.74L222.08 25.28L234.89 25.28Q240.30 25.28 244.03 26.56Q247.76 27.85 249.70 30.95Q251.65 34.06 251.65 39.40L251.65 39.40Q251.65 42.64 251.06 45.21Q250.46 47.78 249.04 49.60Q247.62 51.41 245.12 52.40L245.12 52.40L252.57 78.74L242.81 78.74L236.34 54.25L231.85 54.25L231.85 78.74ZM231.85 31.94L231.85 48.11L234.89 48.11Q237.72 48.11 239.41 47.29Q241.09 46.46 241.82 44.65Q242.54 42.83 242.54 40.00L242.54 40.00Q242.54 35.97 241.06 33.96Q239.57 31.94 235.41 31.94L235.41 31.94L231.85 31.94ZM264.30 78.74L256.98 78.74L257.90 25.28L268.00 25.28L275.59 62.30L283.51 25.28L293.28 25.28L294.27 78.74L287.01 78.74L286.21 41.58L278.62 78.74L272.75 78.74L265.03 41.45L264.30 78.74Z" transform="translate(0, 0)"></path></g></svg></svg>