<svg xmlns="http://www.w3.org/2000/svg" viewBox="152.016 167.757 270.9686279296875 239.48577314498226"> <svg xmlns="http://www.w3.org/2000/svg" xmlns:xlink="http://www.w3.org/1999/xlink" viewBox="-3.3537605472703375e-14 0 52.000003814697266 39.5" height="99.48577314498228" width="130.9686279296875" y="237.757" x="222.016" preserveAspectRatio="xMinYMin" style="overflow: visible;"><linearGradient id="linear-gradient" x1="-85.26" y1="19.75" x2="-33.26" y2="19.75" gradientTransform="matrix(-1, 0, 0, 1, -33.26, 0)" gradientUnits="userSpaceOnUse" style=""><stop offset="0" stop-color="#008ffa"></stop><stop offset="1" stop-color="#54b2fe"></stop></linearGradient><path id="Layer_1-2" dataName="Layer 1" class="cls-1" d="M45.28,39.5,33.86,30.78h-6.6a4.71,4.71,0,0,1-4.71-4.72V21H18.83L6.72,29.58V21h-2A4.71,4.71,0,0,1,0,16.3V4.72A4.72,4.72,0,0,1,4.72,0H21.85a4.72,4.72,0,0,1,4.72,4.72v2a.31.31,0,0,1-.29.3,4.68,4.68,0,0,0-3.14,1.56A.1.1,0,0,1,23,8.48V4.72A1.12,1.12,0,0,0,21.85,3.6H4.72A1.12,1.12,0,0,0,3.6,4.72V16.3a1.12,1.12,0,0,0,1.12,1.11h5.61v5.2l7.35-5.2h4.87V13.06a4.72,4.72,0,0,1,4.71-4.72l3.54,0a4.47,4.47,0,0,1,4.42,4.45v3.73A4.46,4.46,0,0,1,30.76,21H26.15v5a1.12,1.12,0,0,0,1.11,1.12h7.82l6.59,5v-5h5.61a1.12,1.12,0,0,0,1.12-1.12v-13A1.12,1.12,0,0,0,47.28,12H36.77a.27.27,0,0,1-.25-.24A4.44,4.44,0,0,0,34.88,8.6.13.13,0,0,1,35,8.38H47.28A4.71,4.71,0,0,1,52,13.09v13a4.72,4.72,0,0,1-4.72,4.72h-2ZM26.15,17.41h4.61a.86.86,0,0,0,.86-.85V12.83a.85.85,0,0,0-.85-.85l-3.52,0a1.11,1.11,0,0,0-1.1,1.11Z" style="fill: #F7339A; fill-opacity: 1;"></path></svg></svg>